<svg xmlns="http://www.w3.org/2000/svg" viewBox="0 0 1200 480" font-family="system-ui,Helvetica,Arial,sans-serif"><rect width="1200" height="480" fill="#fff"/><text x="600" y="34" text-anchor="middle" font-size="20" font-weight="600">Structured Recall Bench — composite score by provider</text><text x="600" y="54" text-anchor="middle" font-size="12" fill="#666">seed=42 · 2026-04-21 · mean of per-class means · higher is better</text><line x1="70" x2="1170" y1="390" y2="390" stroke="#eee"/><text x="62" y="394" text-anchor="end" font-size="10" fill="#666">0.0</text><line x1="70" x2="1170" y1="326" y2="326" stroke="#eee"/><text x="62" y="330" text-anchor="end" font-size="10" fill="#666">0.2</text><line x1="70" x2="1170" y1="262" y2="262" stroke="#eee"/><text x="62" y="266" text-anchor="end" font-size="10" fill="#666">0.4</text><line x1="70" x2="1170" y1="198" y2="198" stroke="#eee"/><text x="62" y="202" text-anchor="end" font-size="10" fill="#666">0.6</text><line x1="70" x2="1170" y1="134" y2="134" stroke="#eee"/><text x="62" y="138" text-anchor="end" font-size="10" fill="#666">0.8</text><line x1="70" x2="1170" y1="70" y2="70" stroke="#eee"/><text x="62" y="74" text-anchor="end" font-size="10" fill="#666">1.0</text><line x1="70" x2="70" y1="70" y2="390" stroke="#888"/><line x1="70" x2="1170" y1="390" y2="390" stroke="#888"/><rect x="93.75" y="106.57798235243865" width="90" height="283.42201764756135" fill="#2bb3a4" rx="3"/><text x="138.75" y="100.57798235243865" text-anchor="middle" font-size="13" font-weight="600" fill="#111">0.886</text><text x="138.75" y="412" text-anchor="middle" font-size="13" font-weight="600" fill="#222">sandra-structured</text><text x="138.75" y="428" text-anchor="middle" font-size="10" fill="#777">n=130</text><rect x="231.25" y="236.08689772178582" width="90" height="153.91310227821418" fill="#334155" rx="3"/><text x="276.25" y="230.08689772178582" text-anchor="middle" font-size="13" font-weight="600" fill="#111">0.481</text><text x="276.25" y="412" text-anchor="middle" font-size="13" font-weight="600" fill="#222">mempalace-mcp</text><text x="276.25" y="428" text-anchor="middle" font-size="10" fill="#777">n=130</text><rect x="368.75" y="260.9063964533881" width="90" height="129.09360354661192" fill="#334155" rx="3"/><text x="413.75" y="254.90639645338808" text-anchor="middle" font-size="13" font-weight="600" fill="#111">0.403</text><text x="413.75" y="412" text-anchor="middle" font-size="13" font-weight="600" fill="#222">full-context</text><text x="413.75" y="428" text-anchor="middle" font-size="10" fill="#777">n=130</text><rect x="506.25" y="263.239157572873" width="90" height="126.76084242712699" fill="#334155" rx="3"/><text x="551.25" y="257.239157572873" text-anchor="middle" font-size="13" font-weight="600" fill="#111">0.396</text><text x="551.25" y="412" text-anchor="middle" font-size="13" font-weight="600" fill="#222">sandra</text><text x="551.25" y="428" text-anchor="middle" font-size="10" fill="#777">n=130</text><rect x="643.75" y="283.656131032676" width="90" height="106.343868967324" fill="#334155" rx="3"/><text x="688.75" y="277.656131032676" text-anchor="middle" font-size="13" font-weight="600" fill="#111">0.332</text><text x="688.75" y="412" text-anchor="middle" font-size="13" font-weight="600" fill="#222">zep</text><text x="688.75" y="428" text-anchor="middle" font-size="10" fill="#777">n=130</text><rect x="781.25" y="298.60916438721847" width="90" height="91.39083561278153" fill="#334155" rx="3"/><text x="826.25" y="292.60916438721847" text-anchor="middle" font-size="13" font-weight="600" fill="#111">0.286</text><text x="826.25" y="412" text-anchor="middle" font-size="13" font-weight="600" fill="#222">supermemory</text><text x="826.25" y="428" text-anchor="middle" font-size="10" fill="#777">n=130</text><rect x="918.75" y="309.8013443086246" width="90" height="80.1986556913754" fill="#334155" rx="3"/><text x="963.75" y="303.8013443086246" text-anchor="middle" font-size="13" font-weight="600" fill="#111">0.251</text><text x="963.75" y="412" text-anchor="middle" font-size="13" font-weight="600" fill="#222">mem0</text><text x="963.75" y="428" text-anchor="middle" font-size="10" fill="#777">n=130</text><rect x="1056.25" y="330.7067446708605" width="90" height="59.29325532913953" fill="#334155" rx="3"/><text x="1101.25" y="324.7067446708605" text-anchor="middle" font-size="13" font-weight="600" fill="#111">0.185</text><text x="1101.25" y="412" text-anchor="middle" font-size="13" font-weight="600" fill="#222">mempalace</text><text x="1101.25" y="428" text-anchor="middle" font-size="10" fill="#777">n=130</text></svg>