<svg xmlns="http://www.w3.org/2000/svg" viewBox="0 0 1200 640" font-family="system-ui,Helvetica,Arial,sans-serif"><rect width="1200" height="640" fill="#fff"/><text x="600" y="30" text-anchor="middle" font-size="20" font-weight="600">Structured Recall Bench — scores by provider (seed=42, 2026-04-21)</text><text x="600" y="52" text-anchor="middle" font-size="12" fill="#666">Per-class means + composite (mean of class means). Higher is better.</text><line x1="70" x2="1170" y1="520" y2="520" stroke="#eee"/><text x="62" y="524" text-anchor="end" font-size="10" fill="#666">0.0</text><line x1="70" x2="1170" y1="475" y2="475" stroke="#eee"/><text x="62" y="479" text-anchor="end" font-size="10" fill="#666">0.1</text><line x1="70" x2="1170" y1="430" y2="430" stroke="#eee"/><text x="62" y="434" text-anchor="end" font-size="10" fill="#666">0.2</text><line x1="70" x2="1170" y1="385" y2="385" stroke="#eee"/><text x="62" y="389" text-anchor="end" font-size="10" fill="#666">0.3</text><line x1="70" x2="1170" y1="340" y2="340" stroke="#eee"/><text x="62" y="344" text-anchor="end" font-size="10" fill="#666">0.4</text><line x1="70" x2="1170" y1="295" y2="295" stroke="#eee"/><text x="62" y="299" text-anchor="end" font-size="10" fill="#666">0.5</text><line x1="70" x2="1170" y1="250" y2="250" stroke="#eee"/><text x="62" y="254" text-anchor="end" font-size="10" fill="#666">0.6</text><line x1="70" x2="1170" y1="205" y2="205" stroke="#eee"/><text x="62" y="209" text-anchor="end" font-size="10" fill="#666">0.7</text><line x1="70" x2="1170" y1="160" y2="160" stroke="#eee"/><text x="62" y="164" text-anchor="end" font-size="10" fill="#666">0.8</text><line x1="70" x2="1170" y1="115" y2="115" stroke="#eee"/><text x="62" y="119" text-anchor="end" font-size="10" fill="#666">0.9</text><line x1="70" x2="1170" y1="70" y2="70" stroke="#eee"/><text x="62" y="74" text-anchor="end" font-size="10" fill="#666">1.0</text><line x1="70" x2="70" y1="70" y2="520" stroke="#888"/><line x1="70" x2="1170" y1="520" y2="520" stroke="#888"/><rect x="80" y="70" width="17.583333333333332" height="450" fill="#4e79a7" opacity="0.85"/><text x="88.79166666666667" y="67" text-anchor="middle" font-size="9" fill="#222">1.00</text><rect x="99.58333333333333" y="70" width="17.583333333333332" height="450" fill="#59a14f" opacity="0.85"/><text x="108.375" y="67" text-anchor="middle" font-size="9" fill="#222">1.00</text><rect x="119.16666666666666" y="70.07373003636303" width="17.583333333333332" height="449.92626996363697" fill="#f28e2c" opacity="0.85"/><text x="127.95833333333333" y="67.07373003636303" text-anchor="middle" font-size="9" fill="#222">1.00</text><rect x="138.75" y="70" width="17.583333333333332" height="450" fill="#b07aa1" opacity="0.85"/><text x="147.54166666666666" y="67" text-anchor="middle" font-size="9" fill="#222">1.00</text><rect x="158.33333333333331" y="70" width="17.583333333333332" height="450" fill="#e15759" opacity="0.85"/><text x="167.12499999999997" y="67" text-anchor="middle" font-size="9" fill="#222">1.00</text><rect x="177.91666666666666" y="121.43778768311682" width="17.583333333333332" height="398.5622123168832" fill="#333333" opacity="1"/><text x="186.70833333333331" y="118.43778768311682" text-anchor="middle" font-size="9" fill="#222">0.89</text><text x="138.75" y="540" text-anchor="middle" font-size="13" font-weight="600">sandra-structured</text><text x="138.75" y="556" text-anchor="middle" font-size="11" fill="#555">composite 0.886</text><rect x="217.5" y="291.13208231397084" width="17.583333333333332" height="228.86791768602916" fill="#4e79a7" opacity="0.85"/><text x="226.29166666666666" y="288.13208231397084" text-anchor="middle" font-size="9" fill="#222">0.51</text><rect x="237.08333333333334" y="260.85577396934906" width="17.583333333333332" height="259.14422603065094" fill="#59a14f" opacity="0.85"/><text x="245.875" y="257.85577396934906" text-anchor="middle" font-size="9" fill="#222">0.58</text><rect x="256.6666666666667" y="353.81701480562356" width="17.583333333333332" height="166.18298519437644" fill="#f28e2c" opacity="0.85"/><text x="265.45833333333337" y="350.81701480562356" text-anchor="middle" font-size="9" fill="#222">0.37</text><rect x="276.25" y="115" width="17.583333333333332" height="405" fill="#b07aa1" opacity="0.85"/><text x="285.0416666666667" y="112" text-anchor="middle" font-size="9" fill="#222">0.90</text><rect x="295.8333333333333" y="385" width="17.583333333333332" height="135" fill="#e15759" opacity="0.85"/><text x="304.625" y="382" text-anchor="middle" font-size="9" fill="#222">0.30</text><rect x="315.41666666666663" y="303.5596999212613" width="17.583333333333332" height="216.4403000787387" fill="#333333" opacity="1"/><text x="324.2083333333333" y="300.5596999212613" text-anchor="middle" font-size="9" fill="#222">0.48</text><text x="276.25" y="540" text-anchor="middle" font-size="13" font-weight="600">mempalace-mcp</text><text x="276.25" y="556" text-anchor="middle" font-size="11" fill="#555">composite 0.481</text><rect x="355" y="315.08871979189564" width="17.583333333333332" height="204.91128020810436" fill="#4e79a7" opacity="0.85"/><text x="363.7916666666667" y="312.08871979189564" text-anchor="middle" font-size="9" fill="#222">0.46</text><rect x="374.5833333333333" y="299.69665216178043" width="17.583333333333332" height="220.30334783821957" fill="#59a14f" opacity="0.85"/><text x="383.375" y="296.69665216178043" text-anchor="middle" font-size="9" fill="#222">0.49</text><rect x="394.1666666666667" y="429.8045084260641" width="17.583333333333332" height="90.1954915739359" fill="#f28e2c" opacity="0.85"/><text x="402.95833333333337" y="426.8045084260641" text-anchor="middle" font-size="9" fill="#222">0.20</text><rect x="413.75" y="115" width="17.583333333333332" height="405" fill="#b07aa1" opacity="0.85"/><text x="422.5416666666667" y="112" text-anchor="middle" font-size="9" fill="#222">0.90</text><rect x="433.3333333333333" y="430" width="17.583333333333332" height="90" fill="#e15759" opacity="0.85"/><text x="442.125" y="427" text-anchor="middle" font-size="9" fill="#222">0.20</text><rect x="452.91666666666663" y="338.462120012577" width="17.583333333333332" height="181.53787998742303" fill="#333333" opacity="1"/><text x="461.7083333333333" y="335.462120012577" text-anchor="middle" font-size="9" fill="#222">0.40</text><text x="413.75" y="540" text-anchor="middle" font-size="13" font-weight="600">full-context</text><text x="413.75" y="556" text-anchor="middle" font-size="11" fill="#555">composite 0.403</text><rect x="492.5" y="312.6629243586974" width="17.583333333333332" height="207.3370756413026" fill="#4e79a7" opacity="0.85"/><text x="501.2916666666667" y="309.6629243586974" text-anchor="middle" font-size="9" fill="#222">0.46</text><rect x="512.0833333333334" y="225.7064286976389" width="17.583333333333332" height="294.2935713023611" fill="#59a14f" opacity="0.85"/><text x="520.875" y="222.7064286976389" text-anchor="middle" font-size="9" fill="#222">0.65</text><rect x="531.6666666666666" y="452.262065691399" width="17.583333333333332" height="67.73793430860098" fill="#f28e2c" opacity="0.85"/><text x="540.4583333333333" y="449.262065691399" text-anchor="middle" font-size="9" fill="#222">0.15</text><rect x="551.25" y="70" width="17.583333333333332" height="450" fill="#b07aa1" opacity="0.85"/><text x="560.0416666666666" y="67" text-anchor="middle" font-size="9" fill="#222">1.00</text><rect x="570.8333333333334" y="497.5" width="17.583333333333332" height="22.5" fill="#e15759" opacity="0.85"/><text x="579.625" y="494.5" text-anchor="middle" font-size="9" fill="#222">0.05</text><rect x="590.4166666666666" y="341.7425653368527" width="17.583333333333332" height="178.2574346631473" fill="#333333" opacity="1"/><text x="599.2083333333333" y="338.7425653368527" text-anchor="middle" font-size="9" fill="#222">0.40</text><text x="551.25" y="540" text-anchor="middle" font-size="13" font-weight="600">sandra</text><text x="551.25" y="556" text-anchor="middle" font-size="11" fill="#555">composite 0.396</text><rect x="630" y="299.8959680398432" width="17.583333333333332" height="220.10403196015682" fill="#4e79a7" opacity="0.85"/><text x="638.7916666666666" y="296.8959680398432" text-anchor="middle" font-size="9" fill="#222">0.49</text><rect x="649.5833333333334" y="172.6122424198427" width="17.583333333333332" height="347.3877575801573" fill="#59a14f" opacity="0.85"/><text x="658.375" y="169.6122424198427" text-anchor="middle" font-size="9" fill="#222">0.77</text><rect x="669.1666666666666" y="421.6662562945826" width="17.583333333333332" height="98.33374370541742" fill="#f28e2c" opacity="0.85"/><text x="677.9583333333333" y="418.6662562945826" text-anchor="middle" font-size="9" fill="#222">0.22</text><rect x="688.75" y="317.5" width="17.583333333333332" height="202.5" fill="#b07aa1" opacity="0.85"/><text x="697.5416666666666" y="314.5" text-anchor="middle" font-size="9" fill="#222">0.45</text><rect x="708.3333333333334" y="497.5" width="17.583333333333332" height="22.5" fill="#e15759" opacity="0.85"/><text x="717.125" y="494.5" text-anchor="middle" font-size="9" fill="#222">0.05</text><rect x="727.9166666666666" y="370.4539342647006" width="17.583333333333332" height="149.5460657352994" fill="#333333" opacity="1"/><text x="736.7083333333333" y="367.4539342647006" text-anchor="middle" font-size="9" fill="#222">0.33</text><text x="688.75" y="540" text-anchor="middle" font-size="13" font-weight="600">zep</text><text x="688.75" y="556" text-anchor="middle" font-size="11" fill="#555">composite 0.332</text><rect x="767.5" y="496.6495215311005" width="17.583333333333332" height="23.350478468899496" fill="#4e79a7" opacity="0.85"/><text x="776.2916666666666" y="493.6495215311005" text-anchor="middle" font-size="9" fill="#222">0.05</text><rect x="787.0833333333334" y="192.37380418799023" width="17.583333333333332" height="327.62619581200977" fill="#59a14f" opacity="0.85"/><text x="795.875" y="189.37380418799023" text-anchor="middle" font-size="9" fill="#222">0.73</text><rect x="806.6666666666666" y="423.92929926516774" width="17.583333333333332" height="96.07070073483226" fill="#f28e2c" opacity="0.85"/><text x="815.4583333333333" y="420.92929926516774" text-anchor="middle" font-size="9" fill="#222">0.21</text><rect x="826.25" y="137.5" width="17.583333333333332" height="382.5" fill="#b07aa1" opacity="0.85"/><text x="835.0416666666666" y="134.5" text-anchor="middle" font-size="9" fill="#222">0.85</text><rect x="845.8333333333334" y="520" width="17.583333333333332" height="0" fill="#e15759" opacity="0.85"/><rect x="865.4166666666666" y="391.4816374195259" width="17.583333333333332" height="128.5183625804741" fill="#333333" opacity="1"/><text x="874.2083333333333" y="388.4816374195259" text-anchor="middle" font-size="9" fill="#222">0.29</text><text x="826.25" y="540" text-anchor="middle" font-size="13" font-weight="600">supermemory</text><text x="826.25" y="556" text-anchor="middle" font-size="11" fill="#555">composite 0.286</text><rect x="905" y="503.18589409156124" width="17.583333333333332" height="16.814105908438762" fill="#4e79a7" opacity="0.85"/><rect x="924.5833333333334" y="298.0229173040469" width="17.583333333333332" height="221.97708269595307" fill="#59a14f" opacity="0.85"/><text x="933.375" y="295.0229173040469" text-anchor="middle" font-size="9" fill="#222">0.49</text><rect x="944.1666666666666" y="440.0815162893162" width="17.583333333333332" height="79.9184837106838" fill="#f28e2c" opacity="0.85"/><text x="952.9583333333333" y="437.0815162893162" text-anchor="middle" font-size="9" fill="#222">0.18</text><rect x="963.75" y="227.5" width="17.583333333333332" height="292.5" fill="#b07aa1" opacity="0.85"/><text x="972.5416666666666" y="224.5" text-anchor="middle" font-size="9" fill="#222">0.65</text><rect x="983.3333333333334" y="520" width="17.583333333333332" height="0" fill="#e15759" opacity="0.85"/><rect x="1002.9166666666666" y="407.22064043400337" width="17.583333333333332" height="112.77935956599663" fill="#333333" opacity="1"/><text x="1011.7083333333333" y="404.22064043400337" text-anchor="middle" font-size="9" fill="#222">0.25</text><text x="963.75" y="540" text-anchor="middle" font-size="13" font-weight="600">mem0</text><text x="963.75" y="556" text-anchor="middle" font-size="11" fill="#555">composite 0.251</text><rect x="1042.5" y="501.0270272473524" width="17.583333333333332" height="18.972972752647593" fill="#4e79a7" opacity="0.85"/><rect x="1062.0833333333333" y="170.06753764253767" width="17.583333333333332" height="349.9324623574623" fill="#59a14f" opacity="0.85"/><text x="1070.875" y="167.06753764253767" text-anchor="middle" font-size="9" fill="#222">0.78</text><rect x="1081.6666666666667" y="498.3678196417542" width="17.583333333333332" height="21.63218035824582" fill="#f28e2c" opacity="0.85"/><rect x="1101.25" y="340" width="17.583333333333332" height="180" fill="#b07aa1" opacity="0.85"/><text x="1110.0416666666667" y="337" text-anchor="middle" font-size="9" fill="#222">0.40</text><rect x="1120.8333333333333" y="520" width="17.583333333333332" height="0" fill="#e15759" opacity="0.85"/><rect x="1140.4166666666667" y="436.61885969339755" width="17.583333333333332" height="83.38114030660245" fill="#333333" opacity="1"/><text x="1149.2083333333335" y="433.61885969339755" text-anchor="middle" font-size="9" fill="#222">0.19</text><text x="1101.25" y="540" text-anchor="middle" font-size="13" font-weight="600">mempalace</text><text x="1101.25" y="556" text-anchor="middle" font-size="11" fill="#555">composite 0.185</text><rect x="60" y="590" width="14" height="14" fill="#4e79a7"/><text x="80" y="601" font-size="11" fill="#333">enumeration_csv</text><rect x="245" y="590" width="14" height="14" fill="#59a14f"/><text x="265" y="601" font-size="11" fill="#333">enumeration_chat</text><rect x="430" y="590" width="14" height="14" fill="#f28e2c"/><text x="450" y="601" font-size="11" fill="#333">aggregation_cross_source</text><rect x="615" y="590" width="14" height="14" fill="#b07aa1"/><text x="635" y="601" font-size="11" fill="#333">reconciliation_update</text><rect x="800" y="590" width="14" height="14" fill="#e15759"/><text x="820" y="601" font-size="11" fill="#333">mixed_conditional</text><rect x="985" y="590" width="14" height="14" fill="#333333"/><text x="1005" y="601" font-size="11" fill="#333">composite</text></svg>