<svg xmlns="http://www.w3.org/2000/svg" viewBox="0 0 1200 640" font-family="system-ui,Helvetica,Arial,sans-serif"><rect width="1200" height="640" fill="#fff"/><text x="600" y="30" text-anchor="middle" font-size="20" font-weight="600">Structured Recall Bench — scores by provider (seed=42, 2026-04-20)</text><text x="600" y="52" text-anchor="middle" font-size="12" fill="#666">Per-class means + composite (mean of class means). Higher is better.</text><line x1="70" x2="1170" y1="520" y2="520" stroke="#eee"/><text x="62" y="524" text-anchor="end" font-size="10" fill="#666">0.0</text><line x1="70" x2="1170" y1="475" y2="475" stroke="#eee"/><text x="62" y="479" text-anchor="end" font-size="10" fill="#666">0.1</text><line x1="70" x2="1170" y1="430" y2="430" stroke="#eee"/><text x="62" y="434" text-anchor="end" font-size="10" fill="#666">0.2</text><line x1="70" x2="1170" y1="385" y2="385" stroke="#eee"/><text x="62" y="389" text-anchor="end" font-size="10" fill="#666">0.3</text><line x1="70" x2="1170" y1="340" y2="340" stroke="#eee"/><text x="62" y="344" text-anchor="end" font-size="10" fill="#666">0.4</text><line x1="70" x2="1170" y1="295" y2="295" stroke="#eee"/><text x="62" y="299" text-anchor="end" font-size="10" fill="#666">0.5</text><line x1="70" x2="1170" y1="250" y2="250" stroke="#eee"/><text x="62" y="254" text-anchor="end" font-size="10" fill="#666">0.6</text><line x1="70" x2="1170" y1="205" y2="205" stroke="#eee"/><text x="62" y="209" text-anchor="end" font-size="10" fill="#666">0.7</text><line x1="70" x2="1170" y1="160" y2="160" stroke="#eee"/><text x="62" y="164" text-anchor="end" font-size="10" fill="#666">0.8</text><line x1="70" x2="1170" y1="115" y2="115" stroke="#eee"/><text x="62" y="119" text-anchor="end" font-size="10" fill="#666">0.9</text><line x1="70" x2="1170" y1="70" y2="70" stroke="#eee"/><text x="62" y="74" text-anchor="end" font-size="10" fill="#666">1.0</text><line x1="70" x2="70" y1="70" y2="520" stroke="#888"/><line x1="70" x2="1170" y1="520" y2="520" stroke="#888"/><rect x="80" y="220" width="25.222222222222225" height="300" fill="#4e79a7" opacity="0.85"/><text x="92.61111111111111" y="217" text-anchor="middle" font-size="9" fill="#222">0.67</text><rect x="107.22222222222223" y="175.31914893617017" width="25.222222222222225" height="344.68085106382983" fill="#59a14f" opacity="0.85"/><text x="119.83333333333334" y="172.31914893617017" text-anchor="middle" font-size="9" fill="#222">0.77</text><rect x="134.44444444444446" y="139.3976634074986" width="25.222222222222225" height="380.6023365925014" fill="#f28e2c" opacity="0.85"/><text x="147.05555555555557" y="136.3976634074986" text-anchor="middle" font-size="9" fill="#222">0.85</text><rect x="161.66666666666669" y="70" width="25.222222222222225" height="450" fill="#b07aa1" opacity="0.85"/><text x="174.2777777777778" y="67" text-anchor="middle" font-size="9" fill="#222">1.00</text><rect x="188.8888888888889" y="70" width="25.222222222222225" height="450" fill="#e15759" opacity="0.85"/><text x="201.50000000000003" y="67" text-anchor="middle" font-size="9" fill="#222">1.00</text><rect x="216.11111111111111" y="134.94336246873377" width="25.222222222222225" height="385.05663753126623" fill="#333333" opacity="1"/><text x="228.72222222222223" y="131.94336246873377" text-anchor="middle" font-size="9" fill="#222">0.86</text><text x="161.66666666666669" y="540" text-anchor="middle" font-size="13" font-weight="600">sandra-structured</text><text x="161.66666666666669" y="556" text-anchor="middle" font-size="11" fill="#555">composite 0.856</text><rect x="263.33333333333337" y="332.5" width="25.222222222222225" height="187.5" fill="#4e79a7" opacity="0.85"/><text x="275.94444444444446" y="329.5" text-anchor="middle" font-size="9" fill="#222">0.42</text><rect x="290.5555555555556" y="184.59790209790214" width="25.222222222222225" height="335.40209790209786" fill="#59a14f" opacity="0.85"/><text x="303.1666666666667" y="181.59790209790214" text-anchor="middle" font-size="9" fill="#222">0.75</text><rect x="317.7777777777778" y="211.6280898561406" width="25.222222222222225" height="308.3719101438594" fill="#f28e2c" opacity="0.85"/><text x="330.3888888888889" y="208.6280898561406" text-anchor="middle" font-size="9" fill="#222">0.69</text><rect x="345.00000000000006" y="70" width="25.222222222222225" height="450" fill="#b07aa1" opacity="0.85"/><text x="357.61111111111114" y="67" text-anchor="middle" font-size="9" fill="#222">1.00</text><rect x="372.2222222222223" y="520" width="25.222222222222225" height="0" fill="#e15759" opacity="0.85"/><rect x="399.44444444444446" y="263.7451983908086" width="25.222222222222225" height="256.2548016091914" fill="#333333" opacity="1"/><text x="412.05555555555554" y="260.7451983908086" text-anchor="middle" font-size="9" fill="#222">0.57</text><text x="345.00000000000006" y="540" text-anchor="middle" font-size="13" font-weight="600">full-context</text><text x="345.00000000000006" y="556" text-anchor="middle" font-size="11" fill="#555">composite 0.569</text><rect x="446.6666666666667" y="520" width="25.222222222222225" height="0" fill="#4e79a7" opacity="0.85"/><rect x="473.8888888888889" y="91.42857142857144" width="25.222222222222225" height="428.57142857142856" fill="#59a14f" opacity="0.85"/><text x="486.5" y="88.42857142857144" text-anchor="middle" font-size="9" fill="#222">0.95</text><rect x="501.11111111111114" y="174.85218261605974" width="25.222222222222225" height="345.14781738394026" fill="#f28e2c" opacity="0.85"/><text x="513.7222222222223" y="171.85218261605974" text-anchor="middle" font-size="9" fill="#222">0.77</text><rect x="528.3333333333334" y="70" width="25.222222222222225" height="450" fill="#b07aa1" opacity="0.85"/><text x="540.9444444444445" y="67" text-anchor="middle" font-size="9" fill="#222">1.00</text><rect x="555.5555555555555" y="520" width="25.222222222222225" height="0" fill="#e15759" opacity="0.85"/><rect x="582.7777777777778" y="275.25615080892624" width="25.222222222222225" height="244.74384919107376" fill="#333333" opacity="1"/><text x="595.3888888888889" y="272.25615080892624" text-anchor="middle" font-size="9" fill="#222">0.54</text><text x="528.3333333333334" y="540" text-anchor="middle" font-size="13" font-weight="600">sandra</text><text x="528.3333333333334" y="556" text-anchor="middle" font-size="11" fill="#555">composite 0.544</text><rect x="630" y="299.8959680398432" width="25.222222222222225" height="220.10403196015682" fill="#4e79a7" opacity="0.85"/><text x="642.6111111111111" y="296.8959680398432" text-anchor="middle" font-size="9" fill="#222">0.49</text><rect x="657.2222222222222" y="172.6122424198427" width="25.222222222222225" height="347.3877575801573" fill="#59a14f" opacity="0.85"/><text x="669.8333333333333" y="169.6122424198427" text-anchor="middle" font-size="9" fill="#222">0.77</text><rect x="684.4444444444445" y="421.6662562945826" width="25.222222222222225" height="98.33374370541742" fill="#f28e2c" opacity="0.85"/><text x="697.0555555555555" y="418.6662562945826" text-anchor="middle" font-size="9" fill="#222">0.22</text><rect x="711.6666666666666" y="317.5" width="25.222222222222225" height="202.5" fill="#b07aa1" opacity="0.85"/><text x="724.2777777777777" y="314.5" text-anchor="middle" font-size="9" fill="#222">0.45</text><rect x="738.8888888888889" y="497.5" width="25.222222222222225" height="22.5" fill="#e15759" opacity="0.85"/><text x="751.5" y="494.5" text-anchor="middle" font-size="9" fill="#222">0.05</text><rect x="766.1111111111111" y="341.8348933508537" width="25.222222222222225" height="178.1651066491463" fill="#333333" opacity="1"/><text x="778.7222222222222" y="338.8348933508537" text-anchor="middle" font-size="9" fill="#222">0.40</text><text x="711.6666666666666" y="540" text-anchor="middle" font-size="13" font-weight="600">zep</text><text x="711.6666666666666" y="556" text-anchor="middle" font-size="11" fill="#555">composite 0.396</text><rect x="813.3333333333334" y="496.6495215311005" width="25.222222222222225" height="23.350478468899496" fill="#4e79a7" opacity="0.85"/><text x="825.9444444444445" y="493.6495215311005" text-anchor="middle" font-size="9" fill="#222">0.05</text><rect x="840.5555555555555" y="192.37380418799023" width="25.222222222222225" height="327.62619581200977" fill="#59a14f" opacity="0.85"/><text x="853.1666666666666" y="189.37380418799023" text-anchor="middle" font-size="9" fill="#222">0.73</text><rect x="867.7777777777778" y="423.92929926516774" width="25.222222222222225" height="96.07070073483226" fill="#f28e2c" opacity="0.85"/><text x="880.3888888888889" y="420.92929926516774" text-anchor="middle" font-size="9" fill="#222">0.21</text><rect x="895" y="160" width="25.222222222222225" height="360" fill="#b07aa1" opacity="0.85"/><text x="907.6111111111111" y="157" text-anchor="middle" font-size="9" fill="#222">0.80</text><rect x="922.2222222222223" y="520" width="25.222222222222225" height="0" fill="#e15759" opacity="0.85"/><rect x="949.4444444444445" y="358.5905249968516" width="25.222222222222225" height="161.40947500314837" fill="#333333" opacity="1"/><text x="962.0555555555555" y="355.5905249968516" text-anchor="middle" font-size="9" fill="#222">0.36</text><text x="895" y="540" text-anchor="middle" font-size="13" font-weight="600">supermemory</text><text x="895" y="556" text-anchor="middle" font-size="11" fill="#555">composite 0.359</text><rect x="996.6666666666667" y="503.18589409156124" width="25.222222222222225" height="16.814105908438762" fill="#4e79a7" opacity="0.85"/><rect x="1023.8888888888889" y="298.0229173040469" width="25.222222222222225" height="221.97708269595307" fill="#59a14f" opacity="0.85"/><text x="1036.5" y="295.0229173040469" text-anchor="middle" font-size="9" fill="#222">0.49</text><rect x="1051.111111111111" y="440.0815162893162" width="25.222222222222225" height="79.9184837106838" fill="#f28e2c" opacity="0.85"/><text x="1063.7222222222222" y="437.0815162893162" text-anchor="middle" font-size="9" fill="#222">0.18</text><rect x="1078.3333333333335" y="250" width="25.222222222222225" height="270" fill="#b07aa1" opacity="0.85"/><text x="1090.9444444444446" y="247" text-anchor="middle" font-size="9" fill="#222">0.60</text><rect x="1105.5555555555557" y="520" width="25.222222222222225" height="0" fill="#e15759" opacity="0.85"/><rect x="1132.7777777777778" y="402.2580655369849" width="25.222222222222225" height="117.74193446301513" fill="#333333" opacity="1"/><text x="1145.388888888889" y="399.2580655369849" text-anchor="middle" font-size="9" fill="#222">0.26</text><text x="1078.3333333333335" y="540" text-anchor="middle" font-size="13" font-weight="600">mem0</text><text x="1078.3333333333335" y="556" text-anchor="middle" font-size="11" fill="#555">composite 0.262</text><rect x="60" y="590" width="14" height="14" fill="#4e79a7"/><text x="80" y="601" font-size="11" fill="#333">enumeration_csv</text><rect x="245" y="590" width="14" height="14" fill="#59a14f"/><text x="265" y="601" font-size="11" fill="#333">enumeration_chat</text><rect x="430" y="590" width="14" height="14" fill="#f28e2c"/><text x="450" y="601" font-size="11" fill="#333">aggregation_cross_source</text><rect x="615" y="590" width="14" height="14" fill="#b07aa1"/><text x="635" y="601" font-size="11" fill="#333">reconciliation_update</text><rect x="800" y="590" width="14" height="14" fill="#e15759"/><text x="820" y="601" font-size="11" fill="#333">mixed_conditional</text><rect x="985" y="590" width="14" height="14" fill="#333333"/><text x="1005" y="601" font-size="11" fill="#333">composite</text></svg>