<svg xmlns="http://www.w3.org/2000/svg" viewBox="0 0 1200 640" font-family="system-ui,Helvetica,Arial,sans-serif"><rect width="1200" height="640" fill="#fff"/><text x="600" y="30" text-anchor="middle" font-size="20" font-weight="600">Structured Recall Bench — scores by provider (seed=42, 2026-04-20)</text><text x="600" y="52" text-anchor="middle" font-size="12" fill="#666">Per-class means + composite (mean of class means). Higher is better.</text><line x1="70" x2="1170" y1="520" y2="520" stroke="#eee"/><text x="62" y="524" text-anchor="end" font-size="10" fill="#666">0.0</text><line x1="70" x2="1170" y1="475" y2="475" stroke="#eee"/><text x="62" y="479" text-anchor="end" font-size="10" fill="#666">0.1</text><line x1="70" x2="1170" y1="430" y2="430" stroke="#eee"/><text x="62" y="434" text-anchor="end" font-size="10" fill="#666">0.2</text><line x1="70" x2="1170" y1="385" y2="385" stroke="#eee"/><text x="62" y="389" text-anchor="end" font-size="10" fill="#666">0.3</text><line x1="70" x2="1170" y1="340" y2="340" stroke="#eee"/><text x="62" y="344" text-anchor="end" font-size="10" fill="#666">0.4</text><line x1="70" x2="1170" y1="295" y2="295" stroke="#eee"/><text x="62" y="299" text-anchor="end" font-size="10" fill="#666">0.5</text><line x1="70" x2="1170" y1="250" y2="250" stroke="#eee"/><text x="62" y="254" text-anchor="end" font-size="10" fill="#666">0.6</text><line x1="70" x2="1170" y1="205" y2="205" stroke="#eee"/><text x="62" y="209" text-anchor="end" font-size="10" fill="#666">0.7</text><line x1="70" x2="1170" y1="160" y2="160" stroke="#eee"/><text x="62" y="164" text-anchor="end" font-size="10" fill="#666">0.8</text><line x1="70" x2="1170" y1="115" y2="115" stroke="#eee"/><text x="62" y="119" text-anchor="end" font-size="10" fill="#666">0.9</text><line x1="70" x2="1170" y1="70" y2="70" stroke="#eee"/><text x="62" y="74" text-anchor="end" font-size="10" fill="#666">1.0</text><line x1="70" x2="70" y1="70" y2="520" stroke="#888"/><line x1="70" x2="1170" y1="520" y2="520" stroke="#888"/><rect x="80" y="291.13208231397084" width="15.037037037037038" height="228.86791768602916" fill="#4e79a7" opacity="0.85"/><text x="87.51851851851852" y="288.13208231397084" text-anchor="middle" font-size="9" fill="#222">0.51</text><rect x="97.03703703703704" y="260.85577396934906" width="15.037037037037038" height="259.14422603065094" fill="#59a14f" opacity="0.85"/><text x="104.55555555555556" y="257.85577396934906" text-anchor="middle" font-size="9" fill="#222">0.58</text><rect x="114.07407407407408" y="353.81701480562356" width="15.037037037037038" height="166.18298519437644" fill="#f28e2c" opacity="0.85"/><text x="121.5925925925926" y="350.81701480562356" text-anchor="middle" font-size="9" fill="#222">0.37</text><rect x="131.11111111111111" y="115" width="15.037037037037038" height="405" fill="#b07aa1" opacity="0.85"/><text x="138.62962962962962" y="112" text-anchor="middle" font-size="9" fill="#222">0.90</text><rect x="148.14814814814815" y="385" width="15.037037037037038" height="135" fill="#e15759" opacity="0.85"/><text x="155.66666666666669" y="382" text-anchor="middle" font-size="9" fill="#222">0.30</text><rect x="165.1851851851852" y="303.5596999212613" width="15.037037037037038" height="216.4403000787387" fill="#333333" opacity="1"/><text x="172.7037037037037" y="300.5596999212613" text-anchor="middle" font-size="9" fill="#222">0.48</text><text x="131.11111111111111" y="540" text-anchor="middle" font-size="13" font-weight="600">mempalace-mcp</text><text x="131.11111111111111" y="556" text-anchor="middle" font-size="11" fill="#555">composite 0.481</text><rect x="202.22222222222223" y="520" width="15.037037037037038" height="0" fill="#4e79a7" opacity="0.85"/><rect x="219.25925925925927" y="127.69230769230768" width="15.037037037037038" height="392.3076923076923" fill="#59a14f" opacity="0.85"/><text x="226.77777777777777" y="124.69230769230768" text-anchor="middle" font-size="9" fill="#222">0.87</text><rect x="236.2962962962963" y="520" width="15.037037037037038" height="0" fill="#f28e2c" opacity="0.85"/><rect x="253.33333333333334" y="520" width="15.037037037037038" height="0" fill="#b07aa1" opacity="0.85"/><rect x="270.3703703703704" y="520" width="15.037037037037038" height="0" fill="#e15759" opacity="0.85"/><rect x="287.4074074074074" y="441.53846153846155" width="15.037037037037038" height="78.46153846153845" fill="#333333" opacity="1"/><text x="294.9259259259259" y="438.53846153846155" text-anchor="middle" font-size="9" fill="#222">0.17</text><text x="253.33333333333334" y="540" text-anchor="middle" font-size="13" font-weight="600">mem0-planned</text><text x="253.33333333333334" y="556" text-anchor="middle" font-size="11" fill="#555">composite 0.174</text><rect x="324.44444444444446" y="501.0270272473524" width="15.037037037037038" height="18.972972752647593" fill="#4e79a7" opacity="0.85"/><rect x="341.4814814814815" y="170.06753764253767" width="15.037037037037038" height="349.9324623574623" fill="#59a14f" opacity="0.85"/><text x="349.00000000000006" y="167.06753764253767" text-anchor="middle" font-size="9" fill="#222">0.78</text><rect x="358.51851851851853" y="498.3678196417542" width="15.037037037037038" height="21.63218035824582" fill="#f28e2c" opacity="0.85"/><rect x="375.55555555555554" y="340" width="15.037037037037038" height="180" fill="#b07aa1" opacity="0.85"/><text x="383.0740740740741" y="337" text-anchor="middle" font-size="9" fill="#222">0.40</text><rect x="392.5925925925926" y="520" width="15.037037037037038" height="0" fill="#e15759" opacity="0.85"/><rect x="409.6296296296297" y="436.61885969339755" width="15.037037037037038" height="83.38114030660245" fill="#333333" opacity="1"/><text x="417.1481481481482" y="433.61885969339755" text-anchor="middle" font-size="9" fill="#222">0.19</text><text x="375.55555555555554" y="540" text-anchor="middle" font-size="13" font-weight="600">mempalace</text><text x="375.55555555555554" y="556" text-anchor="middle" font-size="11" fill="#555">composite 0.185</text><rect x="446.6666666666667" y="70" width="15.037037037037038" height="450" fill="#4e79a7" opacity="0.85"/><text x="454.1851851851852" y="67" text-anchor="middle" font-size="9" fill="#222">1.00</text><rect x="463.7037037037037" y="70" width="15.037037037037038" height="450" fill="#59a14f" opacity="0.85"/><text x="471.22222222222223" y="67" text-anchor="middle" font-size="9" fill="#222">1.00</text><rect x="480.74074074074076" y="70.07373003636303" width="15.037037037037038" height="449.92626996363697" fill="#f28e2c" opacity="0.85"/><text x="488.2592592592593" y="67.07373003636303" text-anchor="middle" font-size="9" fill="#222">1.00</text><rect x="497.7777777777778" y="70" width="15.037037037037038" height="450" fill="#b07aa1" opacity="0.85"/><text x="505.29629629629636" y="67" text-anchor="middle" font-size="9" fill="#222">1.00</text><rect x="514.8148148148148" y="70" width="15.037037037037038" height="450" fill="#e15759" opacity="0.85"/><text x="522.3333333333333" y="67" text-anchor="middle" font-size="9" fill="#222">1.00</text><rect x="531.8518518518518" y="121.43778768311682" width="15.037037037037038" height="398.5622123168832" fill="#333333" opacity="1"/><text x="539.3703703703703" y="118.43778768311682" text-anchor="middle" font-size="9" fill="#222">0.89</text><text x="497.7777777777778" y="540" text-anchor="middle" font-size="13" font-weight="600">sandra-structured</text><text x="497.7777777777778" y="556" text-anchor="middle" font-size="11" fill="#555">composite 0.886</text><rect x="568.8888888888889" y="315.08871979189564" width="15.037037037037038" height="204.91128020810436" fill="#4e79a7" opacity="0.85"/><text x="576.4074074074074" y="312.08871979189564" text-anchor="middle" font-size="9" fill="#222">0.46</text><rect x="585.925925925926" y="299.69665216178043" width="15.037037037037038" height="220.30334783821957" fill="#59a14f" opacity="0.85"/><text x="593.4444444444445" y="296.69665216178043" text-anchor="middle" font-size="9" fill="#222">0.49</text><rect x="602.962962962963" y="429.8045084260641" width="15.037037037037038" height="90.1954915739359" fill="#f28e2c" opacity="0.85"/><text x="610.4814814814815" y="426.8045084260641" text-anchor="middle" font-size="9" fill="#222">0.20</text><rect x="620" y="115" width="15.037037037037038" height="405" fill="#b07aa1" opacity="0.85"/><text x="627.5185185185185" y="112" text-anchor="middle" font-size="9" fill="#222">0.90</text><rect x="637.0370370370371" y="430" width="15.037037037037038" height="90" fill="#e15759" opacity="0.85"/><text x="644.5555555555555" y="427" text-anchor="middle" font-size="9" fill="#222">0.20</text><rect x="654.0740740740741" y="338.462120012577" width="15.037037037037038" height="181.53787998742303" fill="#333333" opacity="1"/><text x="661.5925925925926" y="335.462120012577" text-anchor="middle" font-size="9" fill="#222">0.40</text><text x="620" y="540" text-anchor="middle" font-size="13" font-weight="600">full-context</text><text x="620" y="556" text-anchor="middle" font-size="11" fill="#555">composite 0.403</text><rect x="691.1111111111111" y="312.6629243586974" width="15.037037037037038" height="207.3370756413026" fill="#4e79a7" opacity="0.85"/><text x="698.6296296296296" y="309.6629243586974" text-anchor="middle" font-size="9" fill="#222">0.46</text><rect x="708.1481481481482" y="225.7064286976389" width="15.037037037037038" height="294.2935713023611" fill="#59a14f" opacity="0.85"/><text x="715.6666666666666" y="222.7064286976389" text-anchor="middle" font-size="9" fill="#222">0.65</text><rect x="725.1851851851852" y="452.262065691399" width="15.037037037037038" height="67.73793430860098" fill="#f28e2c" opacity="0.85"/><text x="732.7037037037037" y="449.262065691399" text-anchor="middle" font-size="9" fill="#222">0.15</text><rect x="742.2222222222222" y="70" width="15.037037037037038" height="450" fill="#b07aa1" opacity="0.85"/><text x="749.7407407407406" y="67" text-anchor="middle" font-size="9" fill="#222">1.00</text><rect x="759.2592592592592" y="497.5" width="15.037037037037038" height="22.5" fill="#e15759" opacity="0.85"/><text x="766.7777777777777" y="494.5" text-anchor="middle" font-size="9" fill="#222">0.05</text><rect x="776.2962962962963" y="341.7425653368527" width="15.037037037037038" height="178.2574346631473" fill="#333333" opacity="1"/><text x="783.8148148148148" y="338.7425653368527" text-anchor="middle" font-size="9" fill="#222">0.40</text><text x="742.2222222222222" y="540" text-anchor="middle" font-size="13" font-weight="600">sandra</text><text x="742.2222222222222" y="556" text-anchor="middle" font-size="11" fill="#555">composite 0.396</text><rect x="813.3333333333334" y="299.8959680398432" width="15.037037037037038" height="220.10403196015682" fill="#4e79a7" opacity="0.85"/><text x="820.8518518518518" y="296.8959680398432" text-anchor="middle" font-size="9" fill="#222">0.49</text><rect x="830.3703703703704" y="172.6122424198427" width="15.037037037037038" height="347.3877575801573" fill="#59a14f" opacity="0.85"/><text x="837.8888888888889" y="169.6122424198427" text-anchor="middle" font-size="9" fill="#222">0.77</text><rect x="847.4074074074074" y="421.6662562945826" width="15.037037037037038" height="98.33374370541742" fill="#f28e2c" opacity="0.85"/><text x="854.9259259259259" y="418.6662562945826" text-anchor="middle" font-size="9" fill="#222">0.22</text><rect x="864.4444444444445" y="317.5" width="15.037037037037038" height="202.5" fill="#b07aa1" opacity="0.85"/><text x="871.9629629629629" y="314.5" text-anchor="middle" font-size="9" fill="#222">0.45</text><rect x="881.4814814814815" y="497.5" width="15.037037037037038" height="22.5" fill="#e15759" opacity="0.85"/><text x="889" y="494.5" text-anchor="middle" font-size="9" fill="#222">0.05</text><rect x="898.5185185185186" y="370.4539342647006" width="15.037037037037038" height="149.5460657352994" fill="#333333" opacity="1"/><text x="906.0370370370371" y="367.4539342647006" text-anchor="middle" font-size="9" fill="#222">0.33</text><text x="864.4444444444445" y="540" text-anchor="middle" font-size="13" font-weight="600">zep</text><text x="864.4444444444445" y="556" text-anchor="middle" font-size="11" fill="#555">composite 0.332</text><rect x="935.5555555555557" y="496.6495215311005" width="15.037037037037038" height="23.350478468899496" fill="#4e79a7" opacity="0.85"/><text x="943.0740740740741" y="493.6495215311005" text-anchor="middle" font-size="9" fill="#222">0.05</text><rect x="952.5925925925927" y="192.37380418799023" width="15.037037037037038" height="327.62619581200977" fill="#59a14f" opacity="0.85"/><text x="960.1111111111112" y="189.37380418799023" text-anchor="middle" font-size="9" fill="#222">0.73</text><rect x="969.6296296296298" y="423.92929926516774" width="15.037037037037038" height="96.07070073483226" fill="#f28e2c" opacity="0.85"/><text x="977.1481481481483" y="420.92929926516774" text-anchor="middle" font-size="9" fill="#222">0.21</text><rect x="986.6666666666667" y="137.5" width="15.037037037037038" height="382.5" fill="#b07aa1" opacity="0.85"/><text x="994.1851851851852" y="134.5" text-anchor="middle" font-size="9" fill="#222">0.85</text><rect x="1003.7037037037038" y="520" width="15.037037037037038" height="0" fill="#e15759" opacity="0.85"/><rect x="1020.7407407407409" y="391.4816374195259" width="15.037037037037038" height="128.5183625804741" fill="#333333" opacity="1"/><text x="1028.2592592592594" y="388.4816374195259" text-anchor="middle" font-size="9" fill="#222">0.29</text><text x="986.6666666666667" y="540" text-anchor="middle" font-size="13" font-weight="600">supermemory</text><text x="986.6666666666667" y="556" text-anchor="middle" font-size="11" fill="#555">composite 0.286</text><rect x="1057.7777777777778" y="503.18589409156124" width="15.037037037037038" height="16.814105908438762" fill="#4e79a7" opacity="0.85"/><rect x="1074.8148148148148" y="298.0229173040469" width="15.037037037037038" height="221.97708269595307" fill="#59a14f" opacity="0.85"/><text x="1082.3333333333333" y="295.0229173040469" text-anchor="middle" font-size="9" fill="#222">0.49</text><rect x="1091.851851851852" y="440.0815162893162" width="15.037037037037038" height="79.9184837106838" fill="#f28e2c" opacity="0.85"/><text x="1099.3703703703704" y="437.0815162893162" text-anchor="middle" font-size="9" fill="#222">0.18</text><rect x="1108.888888888889" y="227.5" width="15.037037037037038" height="292.5" fill="#b07aa1" opacity="0.85"/><text x="1116.4074074074074" y="224.5" text-anchor="middle" font-size="9" fill="#222">0.65</text><rect x="1125.925925925926" y="520" width="15.037037037037038" height="0" fill="#e15759" opacity="0.85"/><rect x="1142.962962962963" y="407.22064043400337" width="15.037037037037038" height="112.77935956599663" fill="#333333" opacity="1"/><text x="1150.4814814814815" y="404.22064043400337" text-anchor="middle" font-size="9" fill="#222">0.25</text><text x="1108.888888888889" y="540" text-anchor="middle" font-size="13" font-weight="600">mem0</text><text x="1108.888888888889" y="556" text-anchor="middle" font-size="11" fill="#555">composite 0.251</text><rect x="60" y="590" width="14" height="14" fill="#4e79a7"/><text x="80" y="601" font-size="11" fill="#333">enumeration_csv</text><rect x="245" y="590" width="14" height="14" fill="#59a14f"/><text x="265" y="601" font-size="11" fill="#333">enumeration_chat</text><rect x="430" y="590" width="14" height="14" fill="#f28e2c"/><text x="450" y="601" font-size="11" fill="#333">aggregation_cross_source</text><rect x="615" y="590" width="14" height="14" fill="#b07aa1"/><text x="635" y="601" font-size="11" fill="#333">reconciliation_update</text><rect x="800" y="590" width="14" height="14" fill="#e15759"/><text x="820" y="601" font-size="11" fill="#333">mixed_conditional</text><rect x="985" y="590" width="14" height="14" fill="#333333"/><text x="1005" y="601" font-size="11" fill="#333">composite</text></svg>